<?xml version="1.0" encoding="UTF-8" standalone="no"?>
<!DOCTYPE svg PUBLIC "-//W3C//DTD SVG 1.1//EN" "http://www.w3.org/Graphics/SVG/1.1/DTD/svg11.dtd">
<svg width="100%" height="100%" viewBox="0 0 1938 1938" version="1.1" xmlns="http://www.w3.org/2000/svg" xmlns:xlink="http://www.w3.org/1999/xlink" xml:space="preserve" xmlns:serif="http://www.serif.com/" style="fill-rule:evenodd;clip-rule:evenodd;stroke-linecap:round;stroke-linejoin:round;stroke-miterlimit:1.5;">
    <g transform="matrix(1,0,0,1,-31.206953,-31.206953)">
        <g transform="matrix(3.067975,0,0,3.067975,-1730.859112,-2444.586447)">
            <circle cx="890.118" cy="1122.756" r="311.995" style="fill:rgb(4,0,19);"/>
            <clipPath id="_clip1">
                <circle cx="890.118" cy="1122.756" r="311.995"/>
            </clipPath>
            <g clip-path="url(#_clip1)">
                <g transform="matrix(1.324436,0,0,1.324436,-402.447519,-494.857278)">
                    <g transform="matrix(0.286635,0.079897,-0.074075,0.265748,949.189746,768.326408)">
                        <path d="M1064.989,1142.833C1066.802,1144.7 1068.45,1146.729 1069.909,1148.895C1068.309,1146.852 1066.669,1144.831 1064.989,1142.833Z" style="fill:none;stroke:black;stroke-width:0.17px;"/>
                    </g>
                    <g>
                        <g transform="matrix(1,0,0,1,1.346772,0.010722)">
                            <path d="M1101.285,1209.048C1100.473,1198.258 1096.058,1187.753 1088.86,1178.736C1088.546,1178.343 1088.227,1177.953 1087.902,1177.565C1082.321,1170.901 1075.194,1165.104 1066.868,1160.683C1066.592,1160.536 1066.316,1160.392 1066.037,1160.248L1065.868,1159.954C1060.329,1150.358 1051.885,1142.648 1041.741,1138.027C1041.31,1137.831 1040.876,1137.64 1040.439,1137.455C1041.439,1137.226 1042.449,1137.018 1043.468,1136.831C1052.639,1135.149 1062.551,1135.169 1072.595,1137.159C1074.661,1137.568 1076.732,1138.06 1078.803,1138.638C1079.698,1138.887 1080.584,1139.15 1081.462,1139.427C1095.2,1143.753 1106.836,1151.324 1115.342,1160.683C1120.037,1165.847 1123.778,1171.556 1126.395,1177.565C1130.627,1187.284 1131.916,1197.786 1129.534,1208.039C1129.383,1208.688 1129.218,1209.336 1129.037,1209.983C1128.718,1211.129 1128.356,1212.254 1127.954,1213.357C1127.484,1214.873 1126.712,1216.228 1125.712,1217.385C1122.695,1220.874 1117.6,1222.563 1112.446,1221.45C1112.152,1221.387 1111.857,1221.314 1111.562,1221.232C1105.999,1219.681 1102.103,1215.244 1101.395,1210.315C1101.373,1210.162 1101.354,1210.01 1101.339,1209.857C1101.323,1209.587 1101.305,1209.317 1101.285,1209.048Z" style="fill:rgb(65,7,136);"/>
                        </g>
                        <path d="M987.92,1160.683L975.854,1160.683C984.714,1145.69 1001.044,1135.626 1019.706,1135.626C1020.554,1135.626 1021.397,1135.647 1022.235,1135.688C1027.217,1135.932 1032.011,1136.894 1036.517,1138.472C1037.586,1138.846 1038.638,1139.255 1039.673,1139.698C1044.471,1141.748 1048.892,1144.515 1052.799,1147.864C1056.359,1150.915 1059.494,1154.448 1062.101,1158.362C1062.606,1159.122 1063.092,1159.895 1063.557,1160.683C1064.465,1162.218 1065.294,1163.805 1066.039,1165.438C1067.78,1169.252 1069.063,1173.318 1069.818,1177.565C1070.051,1178.87 1070.233,1180.193 1070.364,1181.53C1070.524,1183.174 1070.606,1184.841 1070.606,1186.526C1070.606,1187.256 1070.403,1193.063 1069.961,1194.647L1069.949,1194.692C1069.752,1195.392 1069.514,1196.07 1069.241,1196.724C1069.115,1197.025 1068.981,1197.321 1068.84,1197.611C1068.309,1198.702 1067.674,1199.717 1066.951,1200.648C1063.158,1205.526 1056.951,1208.059 1050.804,1206.789C1050.452,1206.716 1050.101,1206.631 1049.751,1206.534C1042.423,1204.491 1037.718,1197.55 1037.968,1190.023C1038.01,1188.731 1038.066,1180.284 1037.271,1177.565C1035.696,1172.181 1032.739,1167.385 1028.811,1163.586C1027.729,1162.54 1026.573,1161.569 1025.352,1160.683C1022.698,1158.757 1019.737,1157.23 1016.557,1156.189C1015.224,1155.753 1013.853,1155.402 1012.45,1155.144C1011.647,1154.995 1010.833,1154.877 1010.01,1154.791C1009.833,1154.772 1009.656,1154.755 1009.479,1154.739C1008.542,1154.656 1007.594,1154.614 1006.636,1154.614C999.646,1154.614 993.179,1156.866 987.92,1160.683Z" style="fill:rgb(65,7,136);"/>
                        <path d="M1020.258,1133.956C1028.804,1123.725 1044.317,1114.704 1059.504,1111.277C1064.008,1110.261 1068.71,1109.579 1073.554,1109.255C1085.512,1108.149 1098.414,1109.239 1111.394,1112.858C1113.767,1113.519 1116.095,1114.252 1118.373,1115.051C1118.804,1115.202 1119.234,1115.356 1119.662,1115.512C1125.14,1117.51 1130.324,1119.895 1135.163,1122.601C1142.509,1126.709 1149.061,1131.56 1154.648,1136.93C1157.219,1139.402 1159.586,1141.984 1161.731,1144.654C1164.931,1148.637 1167.639,1152.817 1169.797,1157.122C1170.13,1157.787 1170.451,1158.455 1170.758,1159.126C1171.196,1160.302 1171.448,1161.54 1171.491,1162.799C1171.529,1163.926 1171.398,1165.071 1171.083,1166.204L1171.074,1166.236C1171.062,1166.279 1171.049,1166.321 1171.037,1166.363C1170.582,1167.909 1169.818,1169.29 1168.824,1170.466C1168.544,1170.798 1168.245,1171.114 1167.929,1171.412C1164.979,1174.203 1160.575,1175.491 1156.143,1174.542C1155.863,1174.482 1155.582,1174.413 1155.302,1174.335C1152.172,1173.462 1149.203,1170.676 1146.091,1165.591C1145.104,1163.979 1144.222,1162.289 1143.171,1160.683C1142.622,1159.844 1142.053,1159.013 1141.463,1158.192C1139.601,1155.601 1137.537,1153.104 1135.285,1150.721C1130.392,1145.544 1124.615,1140.91 1118.101,1137.033C1113.81,1134.48 1109.2,1132.255 1104.313,1130.422C1103.932,1130.278 1103.548,1130.138 1103.163,1129.999C1101.13,1129.268 1099.051,1128.605 1096.928,1128.013C1081.443,1123.697 1065.962,1123.84 1052.355,1127.605C1046.033,1129.354 1040.115,1131.886 1034.791,1135.115C1031.065,1134.125 1025.656,1133.658 1020.258,1133.956Z" style="fill:rgb(65,7,136);"/>
                        <path d="M1019.283,1134.088C1014.932,1134.083 1010.659,1134.667 1006.437,1135.626C1008.611,1130.043 1017.224,1128.211 1026.079,1126.52C1023.042,1128.983 1020.649,1131.496 1019.283,1134.088Z" style="fill:rgb(65,7,136);"/>
                        <path d="M1159.569,1216.448C1159.543,1217.374 1159.495,1218.296 1159.424,1219.212C1159.357,1220.091 1159.042,1224.342 1156.747,1226.662C1153.578,1229.865 1148.894,1231.761 1143.922,1230.692C1143.638,1230.63 1143.353,1230.56 1143.069,1230.481C1141.591,1230.069 1140.236,1229.443 1139.035,1228.65C1138.903,1228.563 1138.774,1228.475 1138.646,1228.384C1138.545,1228.312 1138.444,1228.239 1138.345,1228.164C1136.717,1226.942 1133.842,1221.765 1133.47,1220.808C1132.766,1218.995 1131.988,1217.187 1131.139,1215.388L1130.999,1215.094C1131.074,1214.896 1131.139,1214.693 1131.209,1214.491C1131.608,1213.332 1132.022,1212.171 1132.362,1210.979C1132.554,1210.306 1132.73,1209.631 1132.89,1208.955C1135.401,1198.389 1134.079,1187.578 1129.679,1177.565L1129.55,1177.274C1126.926,1171.393 1123.239,1165.792 1118.642,1160.683C1118.361,1160.37 1118.077,1160.06 1117.789,1159.751C1108.737,1150.044 1096.356,1142.207 1081.737,1137.749C1080.803,1137.464 1079.86,1137.193 1078.908,1136.936C1076.703,1136.342 1074.5,1135.836 1072.302,1135.417C1061.613,1133.379 1050.934,1134.227 1041.175,1136.004C1040.255,1136.172 1039.342,1136.355 1038.436,1136.554C1037.554,1136.172 1036.666,1135.813 1035.774,1135.477C1047.302,1129.151 1061.574,1126.936 1076.488,1128.867C1091.607,1130.825 1107.385,1137.044 1121.633,1147.562C1123.586,1149.004 1125.47,1150.497 1127.284,1152.036C1127.628,1152.328 1127.969,1152.621 1128.308,1152.916C1131.159,1155.398 1133.83,1157.994 1136.316,1160.683C1137.609,1162.081 1138.851,1163.505 1140.043,1164.95C1143.386,1169.006 1146.326,1173.234 1148.843,1177.565C1150.21,1179.917 1151.452,1182.3 1152.565,1184.702L1152.794,1185.199C1154.262,1188.42 1155.5,1191.674 1156.501,1194.937C1158.495,1201.435 1159.545,1207.962 1159.592,1214.311C1159.597,1215.025 1159.59,1215.738 1159.569,1216.448Z" style="fill:rgb(65,7,136);"/>
                        <path d="M975.854,1141.911C976.075,1120.868 1000.021,1126.758 1006.437,1135.626C1005.88,1135.777 987.021,1139.413 975.854,1158.12C975.939,1154.218 975.819,1145.229 975.854,1141.911Z" style="fill:rgb(65,7,136);"/>
                    </g>
                    <g>
                        <g transform="matrix(1,0,0,1,1.346772,0.010722)">
                            <path d="M1101.285,1209.048C1100.473,1198.258 1096.058,1187.753 1088.86,1178.736C1088.546,1178.343 1088.227,1177.953 1087.902,1177.565C1082.321,1170.901 1075.194,1165.104 1066.868,1160.683C1066.592,1160.536 1066.316,1160.392 1066.037,1160.248L1065.868,1159.954C1060.329,1150.358 1051.885,1142.648 1041.741,1138.027C1041.31,1137.831 1040.876,1137.64 1040.439,1137.455C1041.439,1137.226 1042.449,1137.018 1043.468,1136.831C1052.639,1135.149 1062.551,1135.169 1072.595,1137.159C1074.661,1137.568 1076.732,1138.06 1078.803,1138.638C1079.698,1138.887 1080.584,1139.15 1081.462,1139.427C1095.2,1143.753 1106.836,1151.324 1115.342,1160.683C1120.037,1165.847 1123.778,1171.556 1126.395,1177.565C1130.627,1187.284 1131.916,1197.786 1129.534,1208.039C1129.383,1208.688 1129.218,1209.336 1129.037,1209.983C1128.718,1211.129 1128.356,1212.254 1127.954,1213.357C1127.484,1214.873 1126.712,1216.228 1125.712,1217.385C1122.695,1220.874 1117.6,1222.563 1112.446,1221.45C1112.152,1221.387 1111.857,1221.314 1111.562,1221.232C1105.999,1219.681 1102.103,1215.244 1101.395,1210.315C1101.373,1210.162 1101.354,1210.01 1101.339,1209.857C1101.323,1209.587 1101.305,1209.317 1101.285,1209.048Z" style="fill:rgb(0,255,142);"/>
                        </g>
                        <path d="M987.92,1160.683L975.854,1160.683C984.714,1145.69 1001.044,1135.626 1019.706,1135.626C1020.554,1135.626 1021.397,1135.647 1022.235,1135.688C1027.217,1135.932 1032.011,1136.894 1036.517,1138.472C1037.586,1138.846 1038.638,1139.255 1039.673,1139.698C1044.471,1141.748 1048.892,1144.515 1052.799,1147.864C1056.359,1150.915 1059.494,1154.448 1062.101,1158.362C1062.606,1159.122 1063.092,1159.895 1063.557,1160.683C1064.465,1162.218 1065.294,1163.805 1066.039,1165.438C1067.78,1169.252 1069.063,1173.318 1069.818,1177.565C1070.051,1178.87 1070.233,1180.193 1070.364,1181.53C1070.524,1183.174 1070.606,1184.841 1070.606,1186.526C1070.606,1187.256 1070.403,1193.063 1069.961,1194.647L1069.949,1194.692C1069.752,1195.392 1069.514,1196.07 1069.241,1196.724C1069.115,1197.025 1068.981,1197.321 1068.84,1197.611C1068.309,1198.702 1067.674,1199.717 1066.951,1200.648C1063.158,1205.526 1056.951,1208.059 1050.804,1206.789C1050.452,1206.716 1050.101,1206.631 1049.751,1206.534C1042.423,1204.491 1037.718,1197.55 1037.968,1190.023C1038.01,1188.731 1038.066,1180.284 1037.271,1177.565C1035.696,1172.181 1032.739,1167.385 1028.811,1163.586C1027.729,1162.54 1026.573,1161.569 1025.352,1160.683C1022.698,1158.757 1019.737,1157.23 1016.557,1156.189C1015.224,1155.753 1013.853,1155.402 1012.45,1155.144C1011.647,1154.995 1010.833,1154.877 1010.01,1154.791C1009.833,1154.772 1009.656,1154.755 1009.479,1154.739C1008.542,1154.656 1007.594,1154.614 1006.636,1154.614C999.646,1154.614 993.179,1156.866 987.92,1160.683Z" style="fill:rgb(0,255,142);"/>
                        <path d="M1020.258,1133.956C1028.804,1123.725 1044.317,1114.704 1059.504,1111.277C1064.008,1110.261 1068.71,1109.579 1073.554,1109.255C1085.512,1108.149 1098.414,1109.239 1111.394,1112.858C1113.767,1113.519 1116.095,1114.252 1118.373,1115.051C1118.804,1115.202 1119.234,1115.356 1119.662,1115.512C1125.14,1117.51 1130.324,1119.895 1135.163,1122.601C1142.509,1126.709 1149.061,1131.56 1154.648,1136.93C1157.219,1139.402 1159.586,1141.984 1161.731,1144.654C1164.931,1148.637 1167.639,1152.817 1169.797,1157.122C1170.13,1157.787 1170.451,1158.455 1170.758,1159.126C1171.196,1160.302 1171.448,1161.54 1171.491,1162.799C1171.529,1163.926 1171.398,1165.071 1171.083,1166.204L1171.074,1166.236C1171.062,1166.279 1171.049,1166.321 1171.037,1166.363C1170.582,1167.909 1169.818,1169.29 1168.824,1170.466C1168.544,1170.798 1168.245,1171.114 1167.929,1171.412C1164.979,1174.203 1160.575,1175.491 1156.143,1174.542C1155.863,1174.482 1155.582,1174.413 1155.302,1174.335C1152.172,1173.462 1149.203,1170.676 1146.091,1165.591C1145.104,1163.979 1144.222,1162.289 1143.171,1160.683C1142.622,1159.844 1142.053,1159.013 1141.463,1158.192C1139.601,1155.601 1137.537,1153.104 1135.285,1150.721C1130.392,1145.544 1124.615,1140.91 1118.101,1137.033C1113.81,1134.48 1109.2,1132.255 1104.313,1130.422C1103.932,1130.278 1103.548,1130.138 1103.163,1129.999C1101.13,1129.268 1099.051,1128.605 1096.928,1128.013C1081.443,1123.697 1065.962,1123.84 1052.355,1127.605C1046.033,1129.354 1040.115,1131.886 1034.791,1135.115C1031.065,1134.125 1025.656,1133.658 1020.258,1133.956Z" style="fill:rgb(0,255,142);"/>
                        <path d="M1019.283,1134.088C1014.932,1134.083 1010.659,1134.667 1006.437,1135.626C1008.611,1130.043 1017.224,1128.211 1026.079,1126.52C1023.042,1128.983 1020.649,1131.496 1019.283,1134.088Z" style="fill:rgb(0,255,142);"/>
                        <path d="M1159.569,1216.448C1159.543,1217.374 1159.495,1218.296 1159.424,1219.212C1159.357,1220.091 1159.042,1224.342 1156.747,1226.662C1153.578,1229.865 1148.894,1231.761 1143.922,1230.692C1143.638,1230.63 1143.353,1230.56 1143.069,1230.481C1141.591,1230.069 1140.236,1229.443 1139.035,1228.65C1138.903,1228.563 1138.774,1228.475 1138.646,1228.384C1138.545,1228.312 1138.444,1228.239 1138.345,1228.164C1136.717,1226.942 1133.842,1221.765 1133.47,1220.808C1132.766,1218.995 1131.988,1217.187 1131.139,1215.388L1130.999,1215.094C1131.074,1214.896 1131.139,1214.693 1131.209,1214.491C1131.608,1213.332 1132.022,1212.171 1132.362,1210.979C1132.554,1210.306 1132.73,1209.631 1132.89,1208.955C1135.401,1198.389 1134.079,1187.578 1129.679,1177.565L1129.55,1177.274C1126.926,1171.393 1123.239,1165.792 1118.642,1160.683C1118.361,1160.37 1118.077,1160.06 1117.789,1159.751C1108.737,1150.044 1096.356,1142.207 1081.737,1137.749C1080.803,1137.464 1079.86,1137.193 1078.908,1136.936C1076.703,1136.342 1074.5,1135.836 1072.302,1135.417C1061.613,1133.379 1050.934,1134.227 1041.175,1136.004C1040.255,1136.172 1039.342,1136.355 1038.436,1136.554C1037.554,1136.172 1036.666,1135.813 1035.774,1135.477C1047.302,1129.151 1061.574,1126.936 1076.488,1128.867C1091.607,1130.825 1107.385,1137.044 1121.633,1147.562C1123.586,1149.004 1125.47,1150.497 1127.284,1152.036C1127.628,1152.328 1127.969,1152.621 1128.308,1152.916C1131.159,1155.398 1133.83,1157.994 1136.316,1160.683C1137.609,1162.081 1138.851,1163.505 1140.043,1164.95C1143.386,1169.006 1146.326,1173.234 1148.843,1177.565C1150.21,1179.917 1151.452,1182.3 1152.565,1184.702L1152.794,1185.199C1154.262,1188.42 1155.5,1191.674 1156.501,1194.937C1158.495,1201.435 1159.545,1207.962 1159.592,1214.311C1159.597,1215.025 1159.59,1215.738 1159.569,1216.448Z" style="fill:rgb(0,255,142);"/>
                        <path d="M975.854,1141.911C976.075,1120.868 1000.021,1126.758 1006.437,1135.626C1005.88,1135.777 987.021,1139.413 975.854,1158.12C975.939,1154.218 975.819,1145.229 975.854,1141.911Z" style="fill:rgb(0,255,142);"/>
                    </g>
                    <g transform="matrix(1,0,0,1,-1.449727,1.453172)">
                        <g transform="matrix(1,0,0,1,1.449727,-1.453172)">
                            <path d="M1114.512,1224.38C1114.579,1251.697 1114.703,1415.897 1114.703,1415.897L1083.921,1467.463L976.026,1467.463L956.669,1162.204L1023.214,1162.204C1024.256,1162.991 1025.248,1163.84 1026.185,1164.745C1030.113,1168.544 1033.069,1173.34 1034.644,1178.724C1035.439,1181.443 1035.384,1191.361 1035.341,1192.653C1035.092,1200.18 1040.973,1207.415 1048.301,1209.458C1048.651,1209.556 1051.731,1210.339 1053.326,1210.228C1061.656,1209.649 1065.68,1207.01 1069.473,1202.131C1070.196,1201.201 1070.831,1200.186 1071.362,1199.095C1071.503,1198.804 1071.637,1198.509 1071.763,1198.208C1072.037,1197.554 1072.274,1196.876 1072.471,1196.176L1072.483,1196.131C1072.925,1194.546 1073.128,1188.74 1073.128,1188.01C1073.128,1186.324 1073.046,1183.187 1072.886,1181.543C1072.755,1180.205 1072.573,1178.883 1072.341,1177.578C1071.585,1173.331 1070.302,1169.265 1068.561,1165.451C1068.278,1164.831 1067.983,1164.217 1067.676,1163.611C1075.345,1167.916 1081.939,1173.403 1087.174,1179.654C1087.498,1180.042 1087.818,1180.432 1088.132,1180.826C1095.33,1189.842 1099.745,1200.347 1100.556,1211.137C1100.577,1211.407 1100.595,1211.676 1100.61,1211.946C1100.626,1212.099 1100.645,1212.251 1100.667,1212.404C1101.374,1217.333 1106.116,1222.33 1111.68,1223.881C1111.975,1223.963 1112.269,1224.036 1112.564,1224.1C1113.209,1224.239 1113.86,1224.331 1114.512,1224.38Z" style="fill:rgb(193,181,240);"/>
                        </g>
                        <g transform="matrix(1,0,0,1,1.449727,-1.453172)">
                            <path d="M1153.45,1231.586C1181.571,1252.913 1155.066,1296.42 1137.916,1297.917C1131.353,1298.49 1119.062,1293.248 1119.062,1293.248L1119.043,1288.674C1120.225,1288.801 1121.347,1288.859 1122.3,1288.804C1135.194,1288.061 1155.462,1265.48 1130.236,1256.042C1127.809,1255.134 1123.229,1254.607 1118.903,1254.302L1118.78,1224.1C1118.78,1224.1 1125.911,1224.181 1133.507,1225.013C1134.898,1227.333 1136.423,1229.532 1137.649,1230.653C1137.74,1230.737 1137.848,1230.801 1137.95,1230.873C1138.077,1230.964 1138.207,1231.052 1138.338,1231.139C1139.54,1231.931 1140.895,1232.558 1142.372,1232.97C1142.657,1233.049 1142.941,1233.119 1143.225,1233.18C1146.263,1233.834 1150.157,1233.036 1153.45,1231.586Z" style="fill:rgb(193,181,240);stroke:rgb(193,181,240);stroke-width:0.25px;"/>
                        </g>
                    </g>
                    <g transform="matrix(1,0,0,1,125.41621,0)">
                        <g transform="matrix(1,0,0,1.059091,0,-73.486986)">
                            <rect x="888.932" y="1260.18" width="61.727" height="28.077" style="fill:white;"/>
                        </g>
                        <g transform="matrix(1.085779,0,0,1.085779,-77.962246,-111.941536)">
                            <circle cx="918.932" cy="1278.316" r="19.887" style="fill:rgb(53,131,166);"/>
                        </g>
                        <g transform="matrix(0.74763,0,0,0.74763,232.773756,320.319502)">
                            <circle cx="918.932" cy="1278.316" r="19.887" style="fill:rgb(27,27,27);"/>
                        </g>
                        <g>
                            <path d="M950.658,1290.895L950.658,1306.13C950.658,1307.717 949.371,1309.004 947.785,1309.004L891.806,1309.004C890.22,1309.004 888.932,1307.717 888.932,1306.13L888.932,1290.895L950.658,1290.895Z" style="fill:rgb(166,145,249);"/>
                            <path d="M888.932,1261.158L888.932,1246.504C888.932,1244.918 890.22,1243.63 891.806,1243.63L947.785,1243.63C949.371,1243.63 950.658,1244.918 950.658,1246.504L950.658,1261.158L888.932,1261.158Z" style="fill:rgb(166,145,249);"/>
                        </g>
                    </g>
                </g>
                <g transform="matrix(-1.324436,0,0,1.324436,2182.682985,-494.857278)">
                    <g transform="matrix(0.286635,0.079897,-0.074075,0.265748,949.189746,768.326408)">
                        <path d="M1064.989,1142.833C1066.802,1144.7 1068.45,1146.729 1069.909,1148.895C1068.309,1146.852 1066.669,1144.831 1064.989,1142.833Z" style="fill:none;stroke:black;stroke-width:0.17px;"/>
                    </g>
                    <g>
                        <g transform="matrix(1,0,0,1,1.346772,0.010722)">
                            <path d="M1101.285,1209.048C1100.473,1198.258 1096.058,1187.753 1088.86,1178.736C1088.546,1178.343 1088.227,1177.953 1087.902,1177.565C1082.321,1170.901 1075.194,1165.104 1066.868,1160.683C1066.592,1160.536 1066.316,1160.392 1066.037,1160.248L1065.868,1159.954C1060.329,1150.358 1051.885,1142.648 1041.741,1138.027C1041.31,1137.831 1040.876,1137.64 1040.439,1137.455C1041.439,1137.226 1042.449,1137.018 1043.468,1136.831C1052.639,1135.149 1062.551,1135.169 1072.595,1137.159C1074.661,1137.568 1076.732,1138.06 1078.803,1138.638C1079.698,1138.887 1080.584,1139.15 1081.462,1139.427C1095.2,1143.753 1106.836,1151.324 1115.342,1160.683C1120.037,1165.847 1123.778,1171.556 1126.395,1177.565C1130.627,1187.284 1131.916,1197.786 1129.534,1208.039C1129.383,1208.688 1129.218,1209.336 1129.037,1209.983C1128.718,1211.129 1128.356,1212.254 1127.954,1213.357C1127.484,1214.873 1126.712,1216.228 1125.712,1217.385C1122.695,1220.874 1117.6,1222.563 1112.446,1221.45C1112.152,1221.387 1111.857,1221.314 1111.562,1221.232C1105.999,1219.681 1102.103,1215.244 1101.395,1210.315C1101.373,1210.162 1101.354,1210.01 1101.339,1209.857C1101.323,1209.587 1101.305,1209.317 1101.285,1209.048Z" style="fill:rgb(65,7,136);"/>
                        </g>
                        <path d="M987.92,1160.683L975.854,1160.683C984.714,1145.69 1001.044,1135.626 1019.706,1135.626C1020.554,1135.626 1021.397,1135.647 1022.235,1135.688C1027.217,1135.932 1032.011,1136.894 1036.517,1138.472C1037.586,1138.846 1038.638,1139.255 1039.673,1139.698C1044.471,1141.748 1048.892,1144.515 1052.799,1147.864C1056.359,1150.915 1059.494,1154.448 1062.101,1158.362C1062.606,1159.122 1063.092,1159.895 1063.557,1160.683C1064.465,1162.218 1065.294,1163.805 1066.039,1165.438C1067.78,1169.252 1069.063,1173.318 1069.818,1177.565C1070.051,1178.87 1070.233,1180.193 1070.364,1181.53C1070.524,1183.174 1070.606,1184.841 1070.606,1186.526C1070.606,1187.256 1070.403,1193.063 1069.961,1194.647L1069.949,1194.692C1069.752,1195.392 1069.514,1196.07 1069.241,1196.724C1069.115,1197.025 1068.981,1197.321 1068.84,1197.611C1068.309,1198.702 1067.674,1199.717 1066.951,1200.648C1063.158,1205.526 1056.951,1208.059 1050.804,1206.789C1050.452,1206.716 1050.101,1206.631 1049.751,1206.534C1042.423,1204.491 1037.718,1197.55 1037.968,1190.023C1038.01,1188.731 1038.066,1180.284 1037.271,1177.565C1035.696,1172.181 1032.739,1167.385 1028.811,1163.586C1027.729,1162.54 1026.573,1161.569 1025.352,1160.683C1022.698,1158.757 1019.737,1157.23 1016.557,1156.189C1015.224,1155.753 1013.853,1155.402 1012.45,1155.144C1011.647,1154.995 1010.833,1154.877 1010.01,1154.791C1009.833,1154.772 1009.656,1154.755 1009.479,1154.739C1008.542,1154.656 1007.594,1154.614 1006.636,1154.614C999.646,1154.614 993.179,1156.866 987.92,1160.683Z" style="fill:rgb(65,7,136);"/>
                        <path d="M1020.258,1133.956C1028.804,1123.725 1044.317,1114.704 1059.504,1111.277C1064.008,1110.261 1068.71,1109.579 1073.554,1109.255C1085.512,1108.149 1098.414,1109.239 1111.394,1112.858C1113.767,1113.519 1116.095,1114.252 1118.373,1115.051C1118.804,1115.202 1119.234,1115.356 1119.662,1115.512C1125.14,1117.51 1130.324,1119.895 1135.163,1122.601C1142.509,1126.709 1149.061,1131.56 1154.648,1136.93C1157.219,1139.402 1159.586,1141.984 1161.731,1144.654C1164.931,1148.637 1167.639,1152.817 1169.797,1157.122C1170.13,1157.787 1170.451,1158.455 1170.758,1159.126C1171.196,1160.302 1171.448,1161.54 1171.491,1162.799C1171.529,1163.926 1171.398,1165.071 1171.083,1166.204L1171.074,1166.236C1171.062,1166.279 1171.049,1166.321 1171.037,1166.363C1170.582,1167.909 1169.818,1169.29 1168.824,1170.466C1168.544,1170.798 1168.245,1171.114 1167.929,1171.412C1164.979,1174.203 1160.575,1175.491 1156.143,1174.542C1155.863,1174.482 1155.582,1174.413 1155.302,1174.335C1152.172,1173.462 1149.203,1170.676 1146.091,1165.591C1145.104,1163.979 1144.222,1162.289 1143.171,1160.683C1142.622,1159.844 1142.053,1159.013 1141.463,1158.192C1139.601,1155.601 1137.537,1153.104 1135.285,1150.721C1130.392,1145.544 1124.615,1140.91 1118.101,1137.033C1113.81,1134.48 1109.2,1132.255 1104.313,1130.422C1103.932,1130.278 1103.548,1130.138 1103.163,1129.999C1101.13,1129.268 1099.051,1128.605 1096.928,1128.013C1081.443,1123.697 1065.962,1123.84 1052.355,1127.605C1046.033,1129.354 1040.115,1131.886 1034.791,1135.115C1031.065,1134.125 1025.656,1133.658 1020.258,1133.956Z" style="fill:rgb(65,7,136);"/>
                        <path d="M1019.283,1134.088C1014.932,1134.083 1010.659,1134.667 1006.437,1135.626C1008.611,1130.043 1017.224,1128.211 1026.079,1126.52C1023.042,1128.983 1020.649,1131.496 1019.283,1134.088Z" style="fill:rgb(65,7,136);"/>
                        <path d="M1159.569,1216.448C1159.543,1217.374 1159.495,1218.296 1159.424,1219.212C1159.357,1220.091 1159.042,1224.342 1156.747,1226.662C1153.578,1229.865 1148.894,1231.761 1143.922,1230.692C1143.638,1230.63 1143.353,1230.56 1143.069,1230.481C1141.591,1230.069 1140.236,1229.443 1139.035,1228.65C1138.903,1228.563 1138.774,1228.475 1138.646,1228.384C1138.545,1228.312 1138.444,1228.239 1138.345,1228.164C1136.717,1226.942 1133.842,1221.765 1133.47,1220.808C1132.766,1218.995 1131.988,1217.187 1131.139,1215.388L1130.999,1215.094C1131.074,1214.896 1131.139,1214.693 1131.209,1214.491C1131.608,1213.332 1132.022,1212.171 1132.362,1210.979C1132.554,1210.306 1132.73,1209.631 1132.89,1208.955C1135.401,1198.389 1134.079,1187.578 1129.679,1177.565L1129.55,1177.274C1126.926,1171.393 1123.239,1165.792 1118.642,1160.683C1118.361,1160.37 1118.077,1160.06 1117.789,1159.751C1108.737,1150.044 1096.356,1142.207 1081.737,1137.749C1080.803,1137.464 1079.86,1137.193 1078.908,1136.936C1076.703,1136.342 1074.5,1135.836 1072.302,1135.417C1061.613,1133.379 1050.934,1134.227 1041.175,1136.004C1040.255,1136.172 1039.342,1136.355 1038.436,1136.554C1037.554,1136.172 1036.666,1135.813 1035.774,1135.477C1047.302,1129.151 1061.574,1126.936 1076.488,1128.867C1091.607,1130.825 1107.385,1137.044 1121.633,1147.562C1123.586,1149.004 1125.47,1150.497 1127.284,1152.036C1127.628,1152.328 1127.969,1152.621 1128.308,1152.916C1131.159,1155.398 1133.83,1157.994 1136.316,1160.683C1137.609,1162.081 1138.851,1163.505 1140.043,1164.95C1143.386,1169.006 1146.326,1173.234 1148.843,1177.565C1150.21,1179.917 1151.452,1182.3 1152.565,1184.702L1152.794,1185.199C1154.262,1188.42 1155.5,1191.674 1156.501,1194.937C1158.495,1201.435 1159.545,1207.962 1159.592,1214.311C1159.597,1215.025 1159.59,1215.738 1159.569,1216.448Z" style="fill:rgb(65,7,136);"/>
                        <path d="M975.854,1141.911C976.075,1120.868 1000.021,1126.758 1006.437,1135.626C1005.88,1135.777 987.021,1139.413 975.854,1158.12C975.939,1154.218 975.819,1145.229 975.854,1141.911Z" style="fill:rgb(65,7,136);"/>
                    </g>
                    <g>
                        <g transform="matrix(1,0,0,1,1.346772,0.010722)">
                            <path d="M1101.285,1209.048C1100.473,1198.258 1096.058,1187.753 1088.86,1178.736C1088.546,1178.343 1088.227,1177.953 1087.902,1177.565C1082.321,1170.901 1075.194,1165.104 1066.868,1160.683C1066.592,1160.536 1066.316,1160.392 1066.037,1160.248L1065.868,1159.954C1060.329,1150.358 1051.885,1142.648 1041.741,1138.027C1041.31,1137.831 1040.876,1137.64 1040.439,1137.455C1041.439,1137.226 1042.449,1137.018 1043.468,1136.831C1052.639,1135.149 1062.551,1135.169 1072.595,1137.159C1074.661,1137.568 1076.732,1138.06 1078.803,1138.638C1079.698,1138.887 1080.584,1139.15 1081.462,1139.427C1095.2,1143.753 1106.836,1151.324 1115.342,1160.683C1120.037,1165.847 1123.778,1171.556 1126.395,1177.565C1130.627,1187.284 1131.916,1197.786 1129.534,1208.039C1129.383,1208.688 1129.218,1209.336 1129.037,1209.983C1128.718,1211.129 1128.356,1212.254 1127.954,1213.357C1127.484,1214.873 1126.712,1216.228 1125.712,1217.385C1122.695,1220.874 1117.6,1222.563 1112.446,1221.45C1112.152,1221.387 1111.857,1221.314 1111.562,1221.232C1105.999,1219.681 1102.103,1215.244 1101.395,1210.315C1101.373,1210.162 1101.354,1210.01 1101.339,1209.857C1101.323,1209.587 1101.305,1209.317 1101.285,1209.048Z" style="fill:rgb(0,255,142);"/>
                        </g>
                        <path d="M987.92,1160.683L975.854,1160.683C984.714,1145.69 1001.044,1135.626 1019.706,1135.626C1020.554,1135.626 1021.397,1135.647 1022.235,1135.688C1027.217,1135.932 1032.011,1136.894 1036.517,1138.472C1037.586,1138.846 1038.638,1139.255 1039.673,1139.698C1044.471,1141.748 1048.892,1144.515 1052.799,1147.864C1056.359,1150.915 1059.494,1154.448 1062.101,1158.362C1062.606,1159.122 1063.092,1159.895 1063.557,1160.683C1064.465,1162.218 1065.294,1163.805 1066.039,1165.438C1067.78,1169.252 1069.063,1173.318 1069.818,1177.565C1070.051,1178.87 1070.233,1180.193 1070.364,1181.53C1070.524,1183.174 1070.606,1184.841 1070.606,1186.526C1070.606,1187.256 1070.403,1193.063 1069.961,1194.647L1069.949,1194.692C1069.752,1195.392 1069.514,1196.07 1069.241,1196.724C1069.115,1197.025 1068.981,1197.321 1068.84,1197.611C1068.309,1198.702 1067.674,1199.717 1066.951,1200.648C1063.158,1205.526 1056.951,1208.059 1050.804,1206.789C1050.452,1206.716 1050.101,1206.631 1049.751,1206.534C1042.423,1204.491 1037.718,1197.55 1037.968,1190.023C1038.01,1188.731 1038.066,1180.284 1037.271,1177.565C1035.696,1172.181 1032.739,1167.385 1028.811,1163.586C1027.729,1162.54 1026.573,1161.569 1025.352,1160.683C1022.698,1158.757 1019.737,1157.23 1016.557,1156.189C1015.224,1155.753 1013.853,1155.402 1012.45,1155.144C1011.647,1154.995 1010.833,1154.877 1010.01,1154.791C1009.833,1154.772 1009.656,1154.755 1009.479,1154.739C1008.542,1154.656 1007.594,1154.614 1006.636,1154.614C999.646,1154.614 993.179,1156.866 987.92,1160.683Z" style="fill:rgb(0,255,142);"/>
                        <path d="M1020.258,1133.956C1028.804,1123.725 1044.317,1114.704 1059.504,1111.277C1064.008,1110.261 1068.71,1109.579 1073.554,1109.255C1085.512,1108.149 1098.414,1109.239 1111.394,1112.858C1113.767,1113.519 1116.095,1114.252 1118.373,1115.051C1118.804,1115.202 1119.234,1115.356 1119.662,1115.512C1125.14,1117.51 1130.324,1119.895 1135.163,1122.601C1142.509,1126.709 1149.061,1131.56 1154.648,1136.93C1157.219,1139.402 1159.586,1141.984 1161.731,1144.654C1164.931,1148.637 1167.639,1152.817 1169.797,1157.122C1170.13,1157.787 1170.451,1158.455 1170.758,1159.126C1171.196,1160.302 1171.448,1161.54 1171.491,1162.799C1171.529,1163.926 1171.398,1165.071 1171.083,1166.204L1171.074,1166.236C1171.062,1166.279 1171.049,1166.321 1171.037,1166.363C1170.582,1167.909 1169.818,1169.29 1168.824,1170.466C1168.544,1170.798 1168.245,1171.114 1167.929,1171.412C1164.979,1174.203 1160.575,1175.491 1156.143,1174.542C1155.863,1174.482 1155.582,1174.413 1155.302,1174.335C1152.172,1173.462 1149.203,1170.676 1146.091,1165.591C1145.104,1163.979 1144.222,1162.289 1143.171,1160.683C1142.622,1159.844 1142.053,1159.013 1141.463,1158.192C1139.601,1155.601 1137.537,1153.104 1135.285,1150.721C1130.392,1145.544 1124.615,1140.91 1118.101,1137.033C1113.81,1134.48 1109.2,1132.255 1104.313,1130.422C1103.932,1130.278 1103.548,1130.138 1103.163,1129.999C1101.13,1129.268 1099.051,1128.605 1096.928,1128.013C1081.443,1123.697 1065.962,1123.84 1052.355,1127.605C1046.033,1129.354 1040.115,1131.886 1034.791,1135.115C1031.065,1134.125 1025.656,1133.658 1020.258,1133.956Z" style="fill:rgb(0,255,142);"/>
                        <path d="M1019.283,1134.088C1014.932,1134.083 1010.659,1134.667 1006.437,1135.626C1008.611,1130.043 1017.224,1128.211 1026.079,1126.52C1023.042,1128.983 1020.649,1131.496 1019.283,1134.088Z" style="fill:rgb(0,255,142);"/>
                        <path d="M1159.569,1216.448C1159.543,1217.374 1159.495,1218.296 1159.424,1219.212C1159.357,1220.091 1159.042,1224.342 1156.747,1226.662C1153.578,1229.865 1148.894,1231.761 1143.922,1230.692C1143.638,1230.63 1143.353,1230.56 1143.069,1230.481C1141.591,1230.069 1140.236,1229.443 1139.035,1228.65C1138.903,1228.563 1138.774,1228.475 1138.646,1228.384C1138.545,1228.312 1138.444,1228.239 1138.345,1228.164C1136.717,1226.942 1133.842,1221.765 1133.47,1220.808C1132.766,1218.995 1131.988,1217.187 1131.139,1215.388L1130.999,1215.094C1131.074,1214.896 1131.139,1214.693 1131.209,1214.491C1131.608,1213.332 1132.022,1212.171 1132.362,1210.979C1132.554,1210.306 1132.73,1209.631 1132.89,1208.955C1135.401,1198.389 1134.079,1187.578 1129.679,1177.565L1129.55,1177.274C1126.926,1171.393 1123.239,1165.792 1118.642,1160.683C1118.361,1160.37 1118.077,1160.06 1117.789,1159.751C1108.737,1150.044 1096.356,1142.207 1081.737,1137.749C1080.803,1137.464 1079.86,1137.193 1078.908,1136.936C1076.703,1136.342 1074.5,1135.836 1072.302,1135.417C1061.613,1133.379 1050.934,1134.227 1041.175,1136.004C1040.255,1136.172 1039.342,1136.355 1038.436,1136.554C1037.554,1136.172 1036.666,1135.813 1035.774,1135.477C1047.302,1129.151 1061.574,1126.936 1076.488,1128.867C1091.607,1130.825 1107.385,1137.044 1121.633,1147.562C1123.586,1149.004 1125.47,1150.497 1127.284,1152.036C1127.628,1152.328 1127.969,1152.621 1128.308,1152.916C1131.159,1155.398 1133.83,1157.994 1136.316,1160.683C1137.609,1162.081 1138.851,1163.505 1140.043,1164.95C1143.386,1169.006 1146.326,1173.234 1148.843,1177.565C1150.21,1179.917 1151.452,1182.3 1152.565,1184.702L1152.794,1185.199C1154.262,1188.42 1155.5,1191.674 1156.501,1194.937C1158.495,1201.435 1159.545,1207.962 1159.592,1214.311C1159.597,1215.025 1159.59,1215.738 1159.569,1216.448Z" style="fill:rgb(0,255,142);"/>
                        <path d="M975.854,1141.911C976.075,1120.868 1000.021,1126.758 1006.437,1135.626C1005.88,1135.777 987.021,1139.413 975.854,1158.12C975.939,1154.218 975.819,1145.229 975.854,1141.911Z" style="fill:rgb(0,255,142);"/>
                    </g>
                    <g transform="matrix(1,0,0,1,-1.449727,1.453172)">
                        <g transform="matrix(1,0,0,1,1.449727,-1.453172)">
                            <path d="M1114.512,1224.38C1114.584,1253.724 1114.422,1418.237 1114.422,1418.237L1086.118,1467.463L975.916,1467.463L975.854,1162.204L1023.214,1162.204C1024.256,1162.991 1025.248,1163.84 1026.185,1164.745C1030.113,1168.544 1033.069,1173.34 1034.644,1178.724C1035.439,1181.443 1035.384,1191.361 1035.341,1192.653C1035.092,1200.18 1040.973,1207.415 1048.301,1209.458C1048.651,1209.556 1051.731,1210.339 1053.326,1210.228C1061.656,1209.649 1065.68,1207.01 1069.473,1202.131C1070.196,1201.201 1070.831,1200.186 1071.362,1199.095C1071.503,1198.804 1071.637,1198.509 1071.763,1198.208C1072.037,1197.554 1072.274,1196.876 1072.471,1196.176L1072.483,1196.131C1072.925,1194.546 1073.128,1188.74 1073.128,1188.01C1073.128,1186.324 1073.046,1183.187 1072.886,1181.543C1072.755,1180.205 1072.573,1178.883 1072.341,1177.578C1071.585,1173.331 1070.302,1169.265 1068.561,1165.451C1068.278,1164.831 1067.983,1164.217 1067.676,1163.611C1075.345,1167.916 1081.939,1173.403 1087.174,1179.654C1087.498,1180.042 1087.818,1180.432 1088.132,1180.826C1095.33,1189.842 1099.745,1200.347 1100.556,1211.137C1100.577,1211.407 1100.595,1211.676 1100.61,1211.946C1100.626,1212.099 1100.645,1212.251 1100.667,1212.404C1101.374,1217.333 1106.116,1222.33 1111.68,1223.881C1111.975,1223.963 1112.269,1224.036 1112.564,1224.1C1113.209,1224.239 1113.86,1224.331 1114.512,1224.38Z" style="fill:rgb(193,181,240);"/>
                        </g>
                        <g transform="matrix(1,0,0,1,1.449727,-1.453172)">
                            <path d="M1153.45,1231.586C1181.571,1252.913 1155.066,1296.42 1137.916,1297.917C1131.353,1298.49 1119.062,1293.248 1119.062,1293.248L1119.043,1288.674C1120.225,1288.801 1121.347,1288.859 1122.3,1288.804C1135.194,1288.061 1155.462,1265.48 1130.236,1256.042C1127.809,1255.134 1123.229,1254.607 1118.903,1254.302L1118.78,1224.1C1118.78,1224.1 1125.911,1224.181 1133.507,1225.013C1134.898,1227.333 1136.423,1229.532 1137.649,1230.653C1137.74,1230.737 1137.848,1230.801 1137.95,1230.873C1138.077,1230.964 1138.207,1231.052 1138.338,1231.139C1139.54,1231.931 1140.895,1232.558 1142.372,1232.97C1142.657,1233.049 1142.941,1233.119 1143.225,1233.18C1146.263,1233.834 1150.157,1233.036 1153.45,1231.586Z" style="fill:rgb(193,181,240);"/>
                        </g>
                    </g>
                    <g transform="matrix(1,0,0,1,125.41621,0)">
                        <g transform="matrix(1,0,0,1.059091,0,-73.486986)">
                            <rect x="888.932" y="1260.18" width="61.727" height="28.077" style="fill:white;"/>
                        </g>
                        <g transform="matrix(1.085779,0,0,1.085779,-77.962246,-111.941536)">
                            <circle cx="918.932" cy="1278.316" r="19.887" style="fill:rgb(53,131,166);"/>
                        </g>
                        <g transform="matrix(0.74763,0,0,0.74763,232.773756,320.319502)">
                            <circle cx="918.932" cy="1278.316" r="19.887" style="fill:rgb(27,27,27);"/>
                        </g>
                        <g>
                            <path d="M950.658,1290.895L950.658,1306.13C950.658,1307.717 949.371,1309.004 947.785,1309.004L891.806,1309.004C890.22,1309.004 888.932,1307.717 888.932,1306.13L888.932,1290.895L950.658,1290.895Z" style="fill:rgb(166,145,249);"/>
                            <path d="M888.932,1261.158L888.932,1246.504C888.932,1244.918 890.22,1243.63 891.806,1243.63L947.785,1243.63C949.371,1243.63 950.658,1244.918 950.658,1246.504L950.658,1261.158L888.932,1261.158Z" style="fill:rgb(166,145,249);"/>
                        </g>
                    </g>
                </g>
                <g transform="matrix(-1.285028,0.320676,0.320676,1.285028,1709.560637,-743.896299)">
                    <path d="M1000.769,1334.834C994.643,1342.935 983.545,1348.352 970.882,1348.352C958.219,1348.352 947.121,1342.935 940.994,1334.834C947.121,1340.755 958.219,1344.714 970.882,1344.714C983.545,1344.714 994.643,1340.755 1000.769,1334.834Z"/>
                </g>
            </g>
            <circle cx="890.118" cy="1122.756" r="311.995" style="fill:none;stroke:rgb(193,181,240);stroke-width:7.56px;"/>
        </g>
    </g>
</svg>
